<svg id="Layer_1" data-name="Layer 1" xmlns="http://www.w3.org/2000/svg" viewBox="0 0 640 640"><title>Artboard 1</title><g id="Archive"><path d="M164.43,515.65c16.07,0,30.88.22,45.68-.11,5.73-.13,8.86,1.93,10.88,7.25,4.61,12.14,9.76,24.08,14.47,36.19,1.33,3.43,3.12,4.84,6.94,4.83q78.48-.17,157,0c3.85,0,5.59-1.45,6.92-4.86,4.84-12.41,10.06-24.68,14.88-37.1,1.78-4.58,4.69-6.33,9.51-6.27,13.66.18,27.33.08,41,0,1.58,0,3.29.53,4.83-.53-.38-1.85-1.94-2.69-3.06-3.82q-26.31-26.36-52.65-52.69c-1.12-1.13-3.26-2.14-2.68-3.85.64-1.87,2.9-1,4.45-1,10.66-.07,21.33,0,32-.08a12.59,12.59,0,0,1,8.29,2.72c23.74,18.32,47.64,36.44,71.28,54.9,10.24,8,12.46,19.28,10.94,31.52-2.54,20.47-5.3,40.92-7.92,61.38C535,621,527,628.31,510,628.32q-189,.07-377.9,0c-16.71,0-24.71-6.84-27-23.19q-4.38-31.39-8.15-62.87c-1.68-14.1,2.61-25.36,14.72-34.22,22.45-16.42,44.22-33.78,66.17-50.86a15.66,15.66,0,0,1,10.53-3.56c10.49.21,21,0,31.49.1,1.4,0,3.39-.73,4.06.9s-1.23,2.53-2.23,3.53Q194.79,485,167.88,511.81C167,512.73,166.13,513.75,164.43,515.65Z"/><path d="M320.65,307.65h41.48c7.2,0,7.22,0,7.22,7,0,27.65.12,55.3-.1,83,0,4.91,1.52,6.17,6.25,6.12,22.65-.22,45.31-.11,68-.06,1.53,0,3.76-.89,4.41,1,.5,1.47-1.48,2.39-2.56,3.36Q385.09,462.52,324.88,517c-3,2.75-4.82,2.67-7.8,0Q257,462.4,196.64,408c-1.06-1-3.06-1.87-2.5-3.37.69-1.86,2.91-1,4.45-1,22.32-.05,44.64-.19,67,.08,5.19.06,6.44-1.63,6.41-6.57-.21-27.15-.1-54.3-.1-81.46,0-8.09,0-8.09,8.31-8.09Z"/></g><path id="Click" d="M411.28,51.76C387.86,28.07,355.7,15.09,321,15.09s-66.86,13-90.56,36.68C207,75.18,194,107.34,194,142s13,66.86,36.68,90.56C254.13,256,286.3,269,321,269s66.86-13,90.28-36.39C435,209.19,448,177,448,142.33S435,75.46,411.28,51.76Zm-44.58,156a9.79,9.79,0,0,1-7.05,2.82,8.17,8.17,0,0,1-6.49-2.82l-49.09-49.09V84.21a9.87,9.87,0,0,1,19.75,0v66.3L367,194C370.93,197.9,370.65,203.83,366.7,207.78Z"/></svg>