<svg id="Layer_1" data-name="Layer 1" xmlns="http://www.w3.org/2000/svg" viewBox="0 0 640 640">
  <defs>
    <style>
      .cls-1 {
        fill: #40bf40;
      }
    </style>
  </defs>
  <title>Artboard 1</title>
  <path id="Bin" class="cls-1" d="M104.74,434.56c22.21,0,42.69.3,63.15-.15,7.92-.17,12.25,2.67,15,10,6.37,16.79,13.5,33.29,20,50,1.84,4.73,4.31,6.69,9.6,6.68q108.48-.24,217,0c5.32,0,7.72-2,9.56-6.71,6.69-17.16,13.91-34.12,20.57-51.28,2.46-6.34,6.48-8.76,13.15-8.67,18.88.24,37.77.11,56.66,0,2.19,0,4.54.73,6.68-.73-.53-2.55-2.68-3.72-4.24-5.28q-36.36-36.45-72.77-72.83c-1.56-1.56-4.52-3-3.71-5.33.88-2.58,4-1.39,6.15-1.4,14.74-.09,29.49.06,44.22-.12a17.43,17.43,0,0,1,11.47,3.76c32.82,25.32,65.85,50.38,98.52,75.88,14.16,11,17.23,26.66,15.13,43.57-3.52,28.3-7.33,56.56-10.95,84.85-3,23.36-14,33.4-37.57,33.41q-261.19.09-522.39,0c-23.1,0-34.16-9.45-37.31-32.06q-6.06-43.4-11.26-86.9C9.08,451.85,15,436.28,31.75,424c31-22.7,61.12-46.69,91.48-70.31a21.64,21.64,0,0,1,14.55-4.92c14.51.29,29,.06,43.53.14,1.94,0,4.68-1,5.62,1.24s-1.7,3.5-3.08,4.88q-37.12,37.14-74.34,74.19C108.23,430.53,107.09,431.93,104.74,434.56Z"/>
  <path class="cls-1" d="M444.59,92.31c-32.37-32.76-76.83-50.7-124.8-50.7s-92.42,17.94-125.18,50.7c-32.37,32.37-50.31,76.83-50.31,124.8s17.94,92.43,50.7,125.18c32.37,32.37,76.83,50.31,124.79,50.31s92.43-17.94,124.8-50.31c32.76-32.36,50.7-76.82,50.7-124.79S477.35,125.07,444.59,92.31Zm43.52,121.76Q406.56,297.38,325,380.74c-4.09,4.2-6.52,4.08-10.56-.06Q233.07,297.19,151.41,214c-1.44-1.47-4.15-2.86-3.39-5.15.94-2.84,3.94-2.52,6-2.52,30.22-.08,60.45-.3,90.66.12,7,.1,8.73-1.49,8.68-9.05-.29-41.54-.14-83.09-.14-124.64,0-12.38,0-12.39,11.25-12.39h111c9.75,0,9.78,0,9.78,10.75,0,42.31.16,84.62-.14,126.94-.05,7.5,2.06,8.37,8.47,8.36l92-.09c2.07,0,5.09-.36,6,2.59C492.25,211.2,489.56,212.59,488.11,214.07Z"/>
  <path id="Dials" class="cls-1" d="M392,300a13.54,13.54,0,0,1-9.75,3.9,11.29,11.29,0,0,1-9-3.9l-67.86-67.86v-103a13.65,13.65,0,1,1,27.3,0v91.65l59.67,60.06C397.82,286.33,397.43,294.52,392,300Z"/>
</svg>
